<?xml version="1.0" encoding="UTF-8" standalone="no"?>
<!-- Created with Inkscape (http://www.inkscape.org/) -->
<svg xmlns:rdf="http://www.w3.org/1999/02/22-rdf-syntax-ns#" xmlns="http://www.w3.org/2000/svg" height="180" width="140.35" version="1.1" xmlns:cc="http://creativecommons.org/ns#" xmlns:dc="http://purl.org/dc/elements/1.1/">
	<defs></defs>
	<metadata>
		<rdf:RDF>
			<cc:Work rdf:about="">
				<dc:format>image/svg+xml</dc:format>
				<dc:type rdf:resource="http://purl.org/dc/dcmitype/StillImage"/>
				<dc:title/>
			</cc:Work>
		</rdf:RDF>
	</metadata>
	<g transform="translate(-34.850263,-816.48381)">
		<path transform="translate(34.850263,816.48381)" fill="#666666" d="M31.312,6.3125l-28.281,32.344,30.281,63.434c7.292-10.653,18.956-18.063,32.407-19.684l-34.407-76.094z"/>
		<path transform="translate(34.850263,816.48381)" fill="#666666" d="M109.09,6.3125l-34.309,75.876c13.538,1.025,25.429,7.936,33.159,18.152l29.44-61.684-28.29-32.344z"/>
		<path fill="#666666" d="m69.953,820.53,70.711,0-17.678,36.871-36.365,0z"/>
		<path d="m374.77,345.76a45.962,45.962,0,1,1,-91.924,0,45.962,45.962,0,1,1,91.924,0z" transform="matrix(0.8021978,0,0,0.8021978,-157.64576,667.13697)" fill="#a1a1a1"/>
	</g>
</svg>
